<svg width="32" height="32" viewBox="0 0 32 32" fill="none" xmlns="http://www.w3.org/2000/svg">
<path d="M16.0294 29.2516C14.1477 29.6248 12.2067 29.577 10.3457 29.1115C8.48466 28.646 6.74972 27.7745 5.26531 26.5593C3.78091 25.3442 2.58383 23.8156 1.75996 22.0831C0.93608 20.3507 0.505826 18.4574 0.500059 16.5391C0.494291 14.6207 0.913152 12.7249 1.7266 10.9876C2.54004 9.25022 3.7279 7.71444 5.20497 6.49038C6.68204 5.26632 8.41171 4.38433 10.2699 3.90768C12.1281 3.43103 14.0687 3.37153 15.9526 3.73346" stroke="#DA0606"/>
<circle cx="18.5" cy="16.5" r="13" stroke="#DA0606"/>
<path d="M28.5 16.5C28.5 17.8132 28.2413 19.1136 27.7388 20.3268C27.2362 21.5401 26.4997 22.6425 25.5711 23.5711C24.6425 24.4997 23.5401 25.2362 22.3268 25.7388C21.1136 26.2413 19.8132 26.5 18.5 26.5" stroke="#DA0606" stroke-linecap="round"/>
<path d="M8.5 16.5C8.5 13.8478 9.55357 11.3043 11.4289 9.42893C13.3043 7.55357 15.8478 6.5 18.5 6.5" stroke="#DA0606" stroke-linecap="round"/>
<path d="M26.5 16.5C26.5 17.5506 26.2931 18.5909 25.891 19.5615C25.489 20.5321 24.8997 21.414 24.1569 22.1569C23.414 22.8997 22.5321 23.489 21.5615 23.891C20.5909 24.2931 19.5506 24.5 18.5 24.5" stroke="#DA0606" stroke-linecap="round"/>
<path d="M10.5 16.5C10.5 14.3783 11.3429 12.3434 12.8431 10.8431C14.3434 9.34286 16.3783 8.5 18.5 8.5" stroke="#DA0606" stroke-linecap="round"/>
<path d="M19.3494 22.4396C18.4758 22.5645 17.5853 22.4952 16.7415 22.2365C15.8978 21.9779 15.1214 21.5363 14.4679 20.9432C13.8143 20.3501 13.2996 19.6201 12.9606 18.8053C12.6215 17.9905 12.4663 17.111 12.5061 16.2293C12.5459 15.3477 12.7797 14.4857 13.1909 13.7048C13.6021 12.9238 14.1804 12.2432 14.8848 11.7115C15.5891 11.1797 16.4021 10.8099 17.2658 10.6283C18.1294 10.4468 19.0225 10.458 19.8814 10.6612" stroke="#DA0606" stroke-linecap="round"/>
<path d="M23.894 13.8724C24.4681 15.0508 24.6404 16.3849 24.3847 17.6705C24.129 18.9562 23.4593 20.1227 22.478 20.9918" stroke="#DA0606" stroke-linecap="round"/>
<path d="M15.0416 14.4901C15.3955 13.8811 15.904 13.3764 16.5156 13.027C17.1271 12.6775 17.8201 12.4958 18.5245 12.5001" stroke="#DA0606" stroke-linecap="round"/>
<path d="M17 16C17 19 17 21.5 19.5 23M17 16C18.5 17.5 19.5 20 19.5 23M17 16C18.5 16 20 16 20 16C22 19 22.5 21 22.5 23H19.5" stroke="#DA0606" stroke-linecap="round" stroke-linejoin="round"/>
<path d="M14.8062 18.0348C14.6719 17.7117 14.5806 17.3723 14.5347 17.0254" stroke="#DA0606" stroke-linecap="round"/>
</svg>
