<svg width="32" height="32" viewBox="0 0 32 32" fill="none" xmlns="http://www.w3.org/2000/svg">
<path d="M3 9H29" stroke="#DA0606" stroke-miterlimit="10" stroke-linecap="round" stroke-linejoin="round"/>
<path d="M3 9H4.5C6.8 9 9 8.2 10.7 6.7C13.8 4 18.3 4 21.4 6.7C23.1 8.2 25.3 9 27.5 9H29" stroke="#DA0606" stroke-miterlimit="10" stroke-linecap="round" stroke-linejoin="round"/>
<path d="M29 12.7H3" stroke="#DA0606" stroke-miterlimit="10" stroke-linecap="round" stroke-linejoin="round"/>
<path d="M29 12.7H27.5C25.2 12.7 23 13.5 21.3 15C18.2 17.7 13.7 17.7 10.6 15C8.9 13.5 6.7 12.7 4.4 12.7H3" stroke="#DA0606" stroke-miterlimit="10" stroke-linecap="round" stroke-linejoin="round"/>
<path d="M16 3V4" stroke="#DA0606" stroke-miterlimit="10" stroke-linecap="round" stroke-linejoin="round"/>
<path d="M16 17V29" stroke="#DA0606" stroke-miterlimit="10" stroke-linecap="round" stroke-linejoin="round"/>
<path d="M10 29L16 24L22 29" stroke="#DA0606" stroke-miterlimit="10" stroke-linecap="round" stroke-linejoin="round"/>
</svg>
