<svg width="32" height="32" viewBox="0 0 32 32" fill="none" xmlns="http://www.w3.org/2000/svg">
<path d="M14.6332 28.425C11.8146 28.115 9.1853 26.8559 7.17675 24.8544C5.16821 22.8529 3.89983 20.228 3.57985 17.4106" stroke="#D01D1D"/>
<path d="M3.58521 14.543C3.91572 11.7268 5.1939 9.10665 7.20991 7.11269C9.22592 5.11873 11.86 3.86945 14.6796 3.56993" stroke="#D01D1D"/>
<path d="M17.3373 3.57174C20.1566 3.8751 22.7889 5.12797 24.8022 7.12467C26.8155 9.12137 28.0901 11.7432 28.4168 14.5599" stroke="#D01D1D"/>
<path d="M28.3989 17.5866C28.0467 20.3386 26.789 22.8953 24.8239 24.8538C22.8587 26.8123 20.2978 28.0614 17.5446 28.4042" stroke="#D01D1D"/>
<path d="M14.5718 26.4024C11.9378 26.0408 9.53908 24.6934 7.85974 22.6322C6.18041 20.571 5.34551 17.9495 5.52357 15.2968C5.70163 12.6441 6.87939 10.1576 8.81912 8.33939C10.7589 6.52112 13.3161 5.5064 15.9748 5.50003C18.6335 5.49366 21.1956 6.4961 23.1441 8.30505C25.0925 10.114 26.2822 12.5947 26.4729 15.2466C26.6637 17.8984 25.8414 20.5239 24.172 22.5931C22.5025 24.6623 20.1103 26.0212 17.4781 26.3954" stroke="#D01D1D"/>
<path d="M9.98959 9.98959C10.7789 9.2003 11.7159 8.57419 12.7472 8.14702C13.7785 7.71986 14.8838 7.5 16 7.5C17.1162 7.5 18.2215 7.71986 19.2528 8.14702C20.2841 8.57419 21.2211 9.20029 22.0104 9.98959" stroke="#D01D1D" stroke-linecap="round"/>
<rect x="14.5" y="1.5" width="3" height="3" rx="0.5" stroke="#D01D1D" stroke-linejoin="round"/>
<rect x="14.5" y="16.5" width="3" height="3" rx="0.5" stroke="#D01D1D" stroke-linejoin="round"/>
<rect x="14.5" y="22.5" width="3" height="8" rx="0.5" stroke="#D01D1D" stroke-linejoin="round"/>
<rect x="27.5" y="14.5" width="3" height="3" rx="0.5" stroke="#D01D1D" stroke-linejoin="round"/>
<rect x="1.5" y="14.5" width="3" height="3" rx="0.5" stroke="#D01D1D" stroke-linejoin="round"/>
<path d="M16 19V27" stroke="#D01D1D" stroke-linecap="round"/>
<line x1="7.35355" y1="25.3536" x2="5.35355" y2="27.3536" stroke="#D01D1D"/>
<line x1="26.6464" y1="27.3536" x2="24.6464" y2="25.3536" stroke="#D01D1D"/>
<path d="M5 31C5 31.2761 5.22386 31.5 5.5 31.5C5.77614 31.5 6 31.2761 6 31H5ZM5 27V31H6V27H5Z" fill="#D01D1D"/>
<path d="M26 31C26 31.2761 26.2239 31.5 26.5 31.5C26.7761 31.5 27 31.2761 27 31H26ZM26 27V31H27V27H26Z" fill="#D01D1D"/>
</svg>
