<svg width="22" height="32" viewBox="0 0 22 32" fill="none" xmlns="http://www.w3.org/2000/svg">
<path d="M1.38664 2.67241C1.29245 2.86972 1.23457 3.08808 1.23457 3.32012V4.75183C1.02674 4.77288 0.862045 4.94178 0.862045 5.1554C0.862045 5.52056 1.00148 5.85468 1.23457 6.16407V11.7225C1.02674 11.7436 0.862045 11.9125 0.862045 12.1261C0.862045 12.4907 1.00148 12.8254 1.23457 13.1347V14.327H1.22931C1.22931 14.6748 1.37611 14.9948 1.62341 15.2894C1.50397 15.4578 1.43294 15.6619 1.43294 15.884C1.43294 16.4538 1.89544 16.9168 2.46633 16.9168C2.60524 16.9168 2.73678 16.8884 2.85833 16.8395L10.1794 20.79V25.5055L3.37397 28.5694C3.19929 28.4347 2.98356 28.3505 2.7452 28.3505C2.17484 28.3505 1.71233 28.8135 1.71233 29.3844C1.71233 29.9548 2.17484 30.4173 2.7452 30.4173C3.24191 30.4173 3.65547 30.0669 3.75545 29.6001L10.1789 26.7073V28.3505C10.1789 28.8056 10.5472 29.1724 11.0008 29.1724C11.4543 29.1724 11.8227 28.8056 11.8227 28.3505V27.2276L15.7205 30.783C15.7095 30.8424 15.7021 30.9035 15.7021 30.9666C15.7021 31.537 16.1646 32 16.735 32C17.3059 32 17.7684 31.537 17.7684 30.9666C17.7684 30.3962 17.3059 29.9337 16.735 29.9337C16.6397 29.9337 16.5487 29.95 16.4608 29.9748L12.5656 26.4216L14.3662 26.5773C14.5235 26.8136 14.7918 26.9693 15.0965 26.9693C15.5811 26.9693 15.9752 26.5757 15.9752 26.0906C15.9752 25.606 15.5811 25.2119 15.0965 25.2119C14.8466 25.2119 14.6224 25.3177 14.4614 25.4855L11.8221 25.2571V20.7889L19.2537 16.7795C19.4037 16.8642 19.5747 16.9168 19.7594 16.9168C20.3298 16.9168 20.7928 16.4543 20.7928 15.884C20.7928 15.5972 20.6755 15.3378 20.4871 15.1505C20.666 14.8943 20.7702 14.6212 20.7702 14.327H20.7654V13.1342C20.9975 12.8243 21.1369 12.4907 21.1369 12.1256C21.1369 11.913 20.9727 11.7436 20.7654 11.723V6.16301C20.9975 5.85363 21.1369 5.51951 21.1369 5.15435C21.1369 4.94178 20.9727 4.77235 20.7654 4.7513V3.32065C20.7654 3.08756 20.7081 2.86972 20.6134 2.67241C20.1493 1.17283 16.0246 0 11.0003 0C5.97641 0 1.85019 1.17336 1.38664 2.67241ZM11.0013 1.09601C13.6706 1.09601 15.7168 1.41645 17.1422 1.80844C18.1146 2.07626 18.7907 2.37618 19.1827 2.63084C19.3669 2.75081 19.4942 2.86183 19.5495 2.95391C19.2064 3.52165 16.3535 4.81129 11.0008 4.81129C5.6486 4.81129 2.79519 3.52217 2.45213 2.95391C2.5079 2.86183 2.63471 2.75134 2.81992 2.63084C3.21192 2.37618 3.88752 2.07626 4.8604 1.80897C6.28527 1.41697 8.33154 1.09601 11.0013 1.09601ZM19.9451 12.848C19.5705 13.2163 18.9133 13.5678 18.0309 13.8714V12.4186C18.0309 12.1919 17.8468 12.0077 17.62 12.0077C17.3932 12.0077 17.2091 12.1919 17.2091 12.4186V14.1234C15.7116 14.5254 13.7363 14.7953 11.427 14.8253V13.2252C11.427 12.9979 11.2428 12.8143 11.016 12.8143C10.7893 12.8143 10.6051 12.9985 10.6051 13.2252V14.8259C8.29997 14.798 6.3242 14.5312 4.8241 14.1318V12.5833C4.8241 12.356 4.63994 12.1724 4.41316 12.1724C4.18638 12.1724 4.00222 12.3565 4.00222 12.5833V13.8819C3.1051 13.5757 2.43687 13.2205 2.0575 12.848V6.90228C2.57472 7.23955 3.23243 7.53158 4.00222 7.77414V8.9154C4.00222 9.14218 4.18638 9.32634 4.41316 9.32634C4.63994 9.32634 4.8241 9.14218 4.8241 8.9154V8.00566C6.5052 8.42764 8.54884 8.65232 10.6051 8.6781V9.5568C10.6051 9.78358 10.7898 9.96774 11.016 9.96774C11.2428 9.96774 11.427 9.78358 11.427 9.5568V8.67757C13.4859 8.64969 15.5301 8.42343 17.2091 7.99829V8.74966C17.2091 8.97644 17.3937 9.1606 17.62 9.1606C17.8473 9.1606 18.0309 8.97644 18.0309 8.74966V7.76309C18.7876 7.52211 19.4353 7.23429 19.9451 6.90123V12.848ZM11.0013 5.9073C15.0465 5.9073 18.5066 5.14646 19.9451 4.06781V5.87783C19.5705 6.24615 18.9133 6.59763 18.0309 6.9007V6.18196C18.0309 5.95518 17.8468 5.77102 17.62 5.77102C17.3932 5.77102 17.2091 5.95518 17.2091 6.18196V7.15326C15.7116 7.55578 13.7363 7.82518 11.427 7.85517V6.98857C11.427 6.76127 11.2428 6.57763 11.016 6.57763C10.7893 6.57763 10.6051 6.76179 10.6051 6.98857V7.85517C8.29997 7.82728 6.3242 7.56052 4.8241 7.16116V5.84205C4.8241 5.61527 4.63994 5.43111 4.41316 5.43111C4.18638 5.43111 4.00222 5.61527 4.00222 5.84205V6.91175C3.1051 6.60552 2.43687 6.25036 2.0575 5.87783V4.06834C3.49605 5.14646 6.95613 5.9073 11.0013 5.9073ZM5.6023 17.0752C6.99402 17.3688 8.58357 17.543 10.1789 17.5872V19.5445L5.6023 17.0752ZM11.8232 19.544V17.5867C13.4185 17.5425 15.0081 17.3683 16.3993 17.0747L11.8232 19.544ZM19.6678 14.8601C19.3037 14.8927 18.997 15.1116 18.8412 15.4231C17.4343 16.1386 14.745 16.7611 11.1229 16.7748C11.0829 16.7695 11.0429 16.7632 11.0018 16.7632C10.9608 16.7632 10.9203 16.77 10.8808 16.7748C7.49177 16.7622 4.91407 16.216 3.44396 15.5599C3.30768 15.1489 2.92463 14.8501 2.46739 14.8501C2.42371 14.8501 2.38109 14.8574 2.339 14.8632C2.15589 14.6791 2.05382 14.497 2.05382 14.3265H2.05855V13.873C2.57578 14.2102 3.23349 14.5017 4.00275 14.7448V15.1521C4.00275 15.3789 4.18691 15.563 4.41368 15.563C4.64099 15.563 4.82462 15.3789 4.82462 15.1521V14.9763C6.50573 15.3983 8.54937 15.623 10.6062 15.6488V15.794C10.6062 16.0208 10.7903 16.2055 11.0171 16.2055C11.2439 16.2055 11.428 16.0208 11.428 15.794V15.6483C13.4864 15.6204 15.5322 15.3936 17.2096 14.969V15.2431C17.2096 15.4699 17.3943 15.654 17.6205 15.654C17.8478 15.654 18.0315 15.4699 18.0315 15.2431V14.7327C18.7881 14.4923 19.4358 14.2039 19.9457 13.8714V14.3255H19.9509C19.9499 14.4959 19.8478 14.6769 19.6678 14.8601Z" fill="#DA0606"/>
</svg>
